<?xml version="1.0" standalone="no"?>
<!DOCTYPE svg PUBLIC "-//W3C//DTD SVG 20010904//EN"
 "http://www.w3.org/TR/2001/REC-SVG-20010904/DTD/svg10.dtd">
<svg version="1.0" xmlns="http://www.w3.org/2000/svg"
 width="123.000000pt" height="123.000000pt" viewBox="0 0 123.000000 123.000000"
 preserveAspectRatio="xMidYMid meet">
<metadata>
Created by potrace 1.11, written by Peter Selinger 2001-2013
</metadata>
<g transform="translate(0.000000,123.000000) scale(0.100000,-0.100000)"
fill="#000000" stroke="none">
<path d="M600 1097 c-86 -29 -135 -83 -144 -157 -3 -23 -10 -48 -17 -56 -6 -8
-8 -14 -3 -15 5 0 -31 -13 -81 -29 -49 -15 -110 -36 -135 -45 -52 -19 -140
-91 -182 -149 -24 -33 -28 -46 -23 -80 14 -94 86 -209 158 -250 63 -36 200
-54 243 -31 23 11 20 12 -33 10 -64 -3 -152 13 -199 38 -60 31 -135 151 -147
235 -12 81 128 196 316 257 47 16 70 19 72 11 2 -6 11 -38 21 -71 13 -44 28
-71 59 -101 49 -48 81 -59 133 -44 90 24 141 87 170 211 10 41 21 69 29 69 7
0 13 -4 13 -9 0 -17 105 -61 166 -71 142 -22 144 -22 144 -5 0 40 -98 157
-154 184 -23 12 -62 24 -87 27 -24 3 -51 13 -59 23 -9 10 -25 23 -36 29 -46
24 -175 35 -224 19z m126 -48 l34 -21 0 22 c0 19 4 21 28 16 24 -6 52 -31 52
-45 -1 -36 -140 -76 -273 -80 l-89 -3 7 24 c9 32 61 75 99 82 17 3 47 1 66 -4
43 -12 40 -13 40 4 0 8 -10 17 -22 19 -23 4 -23 4 1 6 13 0 39 -8 57 -20z
m198 -55 c24 -24 1 -104 -30 -104 -8 0 -12 4 -9 10 3 5 -6 12 -20 16 -14 3
-24 9 -23 13 35 67 44 81 54 81 7 0 20 -7 28 -16z m81 -21 c12 -12 15 -25 10
-52 -11 -59 -23 -74 -53 -66 -15 3 -31 11 -37 16 -13 13 21 12 48 -2 21 -10
21 -10 3 5 -11 9 -23 16 -27 16 -4 0 -4 14 1 30 5 17 7 39 5 50 -5 25 26 27
50 3z m-175 -7 c0 -2 -7 -7 -16 -10 -8 -3 -12 -2 -9 4 6 10 25 14 25 6z m258
-65 c17 -24 29 -48 26 -53 -4 -6 -3 -8 2 -5 6 3 15 -2 21 -12 11 -17 9 -18
-23 -11 -19 4 -34 6 -34 4 0 -3 -14 3 -31 11 -23 12 -29 21 -23 33 4 9 7 32 6
50 -1 43 13 38 56 -17z m-296 21 c-7 -5 -14 -18 -16 -29 -3 -12 -12 -35 -21
-53 -14 -28 -20 -31 -53 -28 -26 2 -40 9 -46 24 -9 20 -10 20 -28 2 -23 -23
-38 -23 -33 0 13 68 14 69 63 71 26 1 63 6 82 10 48 12 69 13 52 3z m-210 -21
c10 -9 -11 -94 -25 -103 -7 -4 -24 -8 -39 -8 -37 0 -60 46 -47 94 10 35 10 35
57 29 26 -3 50 -8 54 -12z"/>
<path d="M211 709 c-30 -18 -61 -86 -75 -162 l-7 -38 48 50 c55 57 83 67 144
51 35 -10 60 -29 124 -96 92 -96 140 -122 243 -131 79 -6 101 -22 137 -99 24
-51 45 -76 45 -55 0 5 -4 12 -9 16 -5 3 -17 29 -25 58 -23 78 -49 98 -132 101
-127 5 -190 41 -277 158 -62 81 -172 96 -240 33 l-28 -27 7 29 c21 89 59 119
150 117 87 -2 152 -51 205 -156 16 -31 37 -61 46 -67 16 -9 16 -10 -4 -11 -12
0 -25 -5 -28 -10 -4 -6 5 -10 22 -9 15 1 56 -6 90 -15 34 -9 88 -19 120 -22
96 -10 123 -31 168 -126 15 -32 34 -58 42 -58 11 0 10 6 -5 28 -11 15 -28 47
-39 72 -34 75 -59 91 -160 101 -48 5 -102 13 -119 18 -39 11 -85 58 -124 125
-36 64 -84 110 -133 131 -50 21 -147 18 -186 -6z"/>
<path d="M261 454 c0 -13 388 -200 504 -244 149 -57 285 -99 290 -90 8 13 -17
26 -95 49 -171 51 -309 107 -415 169 -42 25 -231 111 -257 117 -16 4 -28 3
-27 -1z"/>
<path d="M300 402 c0 -22 540 -265 555 -250 3 3 -41 22 -97 43 -57 21 -183 78
-280 126 -98 49 -178 85 -178 81z"/>
</g>
</svg>
